<svg xmlns="http://www.w3.org/2000/svg" viewBox="0 0 640 700">
  <defs>
    <clipPath id="cHeartClip">
      <path d="M320 428C128 288 76 146 198 78c50-28 88 8 122 64 34-56 72-92 122-64 122 68 70 210-122 350z"/>
    </clipPath>
  </defs>
  <path fill="none" stroke="#F3EEE4" stroke-width="18" stroke-linecap="round" stroke-linejoin="round"
        d="M8 272 H160 l30-48 38 102 42-152 46 172 34-74 H632"/>
  <path fill="#F3EEE4" d="M320 428C128 288 76 146 198 78c50-28 88 8 122 64 34-56 72-92 122-64 122 68 70 210-122 350z"/>
  <g clip-path="url(#cHeartClip)">
    <path fill="none" stroke="#C62828" stroke-width="18" stroke-linecap="round" stroke-linejoin="round"
          d="M8 272 H160 l30-48 38 102 42-152 46 172 34-74 H632"/>
  </g>
  <g fill="none" stroke="#F3EEE4" stroke-linecap="round" stroke-linejoin="round">
    <path stroke-width="12" d="M92 360 c0-42 22-64 44-64"/>
    <path stroke-width="12" d="M136 360 c0-42-22-64-44-64"/>
    <path stroke-width="12" d="M92 360 C82 412 124 442 176 428"/>
  </g>
  <circle cx="92" cy="360" r="8" fill="#F3EEE4"/>
  <circle cx="136" cy="360" r="8" fill="#F3EEE4"/>
  <circle cx="184" cy="428" r="18" fill="none" stroke="#F3EEE4" stroke-width="11"/>
  <g fill="#F3EEE4">
    <rect x="470" y="360" width="86" height="26" rx="5"/>
    <rect x="500" y="330" width="26" height="86" rx="5"/>
  </g>
  <text x="320" y="558" text-anchor="middle" font-family="Arial Black, Arial, sans-serif"
        font-size="78" font-weight="900" fill="#F3EEE4" letter-spacing="4">CARDIAC</text>
</svg>
